<svg width="18" height="18" viewBox="0 0 18 18" fill="none" xmlns="http://www.w3.org/2000/svg">
<path fill-rule="evenodd" clip-rule="evenodd" d="M14.8713 3.12927C14.3087 2.56685 13.5458 2.25091 12.7503 2.25091C11.9548 2.25091 11.1919 2.56685 10.6293 3.12927L3.12927 10.6293C2.84274 10.906 2.61419 11.237 2.45696 11.6031C2.29974 11.9691 2.21698 12.3627 2.21352 12.7611C2.21006 13.1594 2.28596 13.5544 2.4368 13.9231C2.58765 14.2918 2.81041 14.6268 3.09208 14.9085C3.37376 15.1901 3.70872 15.4129 4.07741 15.5637C4.44609 15.7146 4.84113 15.7905 5.23947 15.787C5.63781 15.7836 6.03147 15.7008 6.39748 15.5436C6.76349 15.3863 7.09453 15.1578 7.37127 14.8713L8.20527 14.0388C8.41853 13.84 8.7006 13.7319 8.99205 13.737C9.2835 13.7421 9.56158 13.8602 9.7677 14.0663C9.97382 14.2725 10.0919 14.5505 10.097 14.842C10.1022 15.1334 9.99399 15.4155 9.79527 15.6288L8.96277 16.4628C7.97815 17.4474 6.64273 18.0005 5.25027 18.0005C3.85781 18.0005 2.52238 17.4474 1.53777 16.4628C0.553152 15.4782 0 14.1427 0 12.7503C0 11.3578 0.553152 10.0224 1.53777 9.03777L9.03777 1.53777C10.0224 0.553152 11.3578 0 12.7503 0C14.1427 0 15.4782 0.553152 16.4628 1.53777C17.4474 2.52238 18.0005 3.85781 18.0005 5.25027C18.0005 6.64273 17.4474 7.97815 16.4628 8.96277L13.5048 11.9208C12.907 12.5187 12.0963 12.8547 11.2508 12.8548C10.4053 12.855 9.59445 12.5193 8.99652 11.9215C8.39859 11.3238 8.0626 10.513 8.06246 9.66755C8.06231 8.82209 8.39804 8.0112 8.99577 7.41327L11.9553 4.45527C12.0583 4.34474 12.1825 4.25608 12.3205 4.1946C12.4585 4.13311 12.6074 4.10005 12.7585 4.09738C12.9095 4.09472 13.0596 4.1225 13.1997 4.17908C13.3397 4.23567 13.467 4.31988 13.5738 4.42671C13.6807 4.53354 13.7649 4.66079 13.8215 4.80087C13.878 4.94095 13.9058 5.091 13.9032 5.24205C13.9005 5.39311 13.8674 5.54208 13.8059 5.68008C13.7445 5.81807 13.6558 5.94228 13.5453 6.04527L10.5873 9.00477C10.4201 9.1823 10.3287 9.41799 10.3324 9.66182C10.3361 9.90565 10.4347 10.1384 10.6072 10.3108C10.7798 10.4831 11.0127 10.5814 11.2565 10.5849C11.5003 10.5883 11.7359 10.4967 11.9133 10.3293L14.8713 7.37127C15.4337 6.80869 15.7496 6.04576 15.7496 5.25027C15.7496 4.45478 15.4337 3.69185 14.8713 3.12927Z" fill="#A0A0A0"/>
</svg>
