<svg width="16" height="18" viewBox="0 0 16 18" fill="none" xmlns="http://www.w3.org/2000/svg">
<path d="M16 14.0625C16 13.132 15.3272 12.375 14.5 12.375L14 4.5C14 0.466875 11.585 8.55255e-06 8 8.55255e-06C4.415 8.55255e-06 1.5 0.466883 1.5 4.50001V12.375C0.67285 12.375 0 13.132 0 14.0625V15.75C0 16.6806 0.67285 17.4375 1.5 17.4375H14.5C15.3272 17.4375 16 16.6806 16 15.75V14.0625ZM2.5 4.50001C2.5 1.08873 4.96778 1.12501 8 1.12501C11.0322 1.12501 13 1.08875 13 4.5L13.5 12.375H2.5V4.50001ZM15 15.75C15 16.0598 14.7754 16.3125 14.5 16.3125H1.5C1.2246 16.3125 1 16.0598 1 15.75V14.0625C1 13.7527 1.22461 13.5 1.5 13.5H14.5C14.7754 13.5 15 13.7527 15 14.0625V15.75Z" fill="#E15C5C"/>
<path d="M6.5 3.09375C5.12207 3.09375 4 4.35608 4 5.90625C4 6.21607 4.22461 6.46875 4.5 6.46875C4.77539 6.46875 5 6.21606 5 5.90625C5 4.97571 5.67285 4.21875 6.5 4.21875C6.7754 4.21875 7 3.96606 7 3.65625C7 3.34644 6.77539 3.09375 6.5 3.09375Z" fill="#E15C5C"/>
</svg>
