<svg width="48" height="46" viewBox="0 0 48 46" fill="none" xmlns="http://www.w3.org/2000/svg">
<path fill-rule="evenodd" clip-rule="evenodd" d="M22.7814 46.0095C23.8981 46.0095 24.7915 45.1161 24.7915 43.9994C24.7915 42.8826 23.8981 41.9893 22.7814 41.9893C21.6646 41.9893 20.7712 42.8826 20.7712 43.9994C20.7712 45.1161 21.6646 46.0095 22.7814 46.0095Z" fill="#6D2FEF"/>
<path fill-rule="evenodd" clip-rule="evenodd" d="M11.614 42.8823C12.5074 43.329 13.6241 43.1057 14.0708 42.2123C14.7408 41.3189 14.2942 40.2021 13.4008 39.5321C12.5074 39.0854 11.3906 39.3088 10.944 40.4255C10.2739 41.3189 10.7206 42.4356 11.614 42.8823Z" fill="#6D2FEF"/>
<path fill-rule="evenodd" clip-rule="evenodd" d="M2.90344 34.8426C3.57348 35.9593 4.91356 36.406 6.0303 35.7359C7.14703 35.0659 7.59373 33.7258 6.92369 32.6091C6.25364 31.4923 4.91356 31.269 3.79683 31.7157C2.68009 32.3857 2.45675 33.7258 2.90344 34.8426Z" fill="#6D2FEF"/>
<path fill-rule="evenodd" clip-rule="evenodd" d="M0 23.4512C0 24.7913 0.893388 25.6847 2.23347 25.6847C3.3502 25.6847 4.46694 24.7913 4.46694 23.4512C4.46694 22.3345 3.3502 21.2178 2.23347 21.2178C0.893388 21.2178 0 22.3345 0 23.4512Z" fill="#6D2FEF"/>
<path fill-rule="evenodd" clip-rule="evenodd" d="M2.90344 12.061C2.2334 13.1778 2.68009 14.7412 3.79683 15.4112C4.91356 16.0813 6.47699 15.6346 7.14703 14.5178C7.81707 13.1778 7.37038 11.8377 6.25364 11.1676C4.91356 10.4976 3.57348 10.7209 2.90344 12.061Z" fill="#6D2FEF"/>
<path fill-rule="evenodd" clip-rule="evenodd" d="M11.1672 3.34997C9.82717 4.02001 9.38047 5.80679 10.0505 7.14687C10.9439 8.26361 12.5073 8.7103 13.8474 8.04026C15.1875 7.37022 15.6342 5.58344 14.7408 4.24336C14.0708 3.12663 12.5073 2.67993 11.1672 3.34997Z" fill="#6D2FEF"/>
<path fill-rule="evenodd" clip-rule="evenodd" d="M22.7814 0C21.218 0 19.8779 1.34008 19.8779 2.90351C19.8779 4.46694 21.218 5.80702 22.7814 5.80702C24.3449 5.80702 25.685 4.46694 25.685 2.90351C25.685 1.34008 24.3449 0 22.7814 0Z" fill="#6D2FEF"/>
<path fill-rule="evenodd" clip-rule="evenodd" d="M34.6188 2.90415C33.0554 1.78742 31.0453 2.45746 30.1519 4.02089C29.2585 5.58432 29.7052 7.59444 31.2686 8.48783C33.0554 9.38121 35.0655 8.93452 35.9589 7.37109C36.8523 5.80766 36.1822 3.79754 34.6188 2.90415Z" fill="#6D2FEF"/>
<path fill-rule="evenodd" clip-rule="evenodd" d="M43.776 11.3909C42.6592 9.60415 40.4257 8.93411 38.639 10.0508C36.8522 10.9442 36.1822 13.1777 37.2989 14.9645C38.4156 16.7513 40.6491 17.4213 42.4359 16.5279C44.2226 15.4112 44.8927 13.1777 43.776 11.3909Z" fill="#6D2FEF"/>
<path fill-rule="evenodd" clip-rule="evenodd" d="M47.1263 23.4512C47.1263 21.4411 45.3395 19.6543 43.3294 19.6543C41.0959 19.6543 39.5325 21.4411 39.5325 23.4512C39.5325 25.4613 41.0959 27.2481 43.3294 27.2481C45.3395 27.2481 47.1263 25.4613 47.1263 23.4512Z" fill="#6D2FEF"/>
<path fill-rule="evenodd" clip-rule="evenodd" d="M44.2227 35.7359C45.3394 33.9491 44.6694 31.269 42.6593 30.1522C40.6492 29.0355 38.1923 29.7055 37.0756 31.7157C35.7355 33.7258 36.4056 36.1826 38.4157 37.2993C40.4258 38.4161 43.106 37.746 44.2227 35.7359Z" fill="#6D2FEF"/>
</svg>
