<svg width="13" height="12" viewBox="0 0 13 12" fill="none" xmlns="http://www.w3.org/2000/svg">
<path d="M9.01581 0.452148L7.81268 1.58652L11.0442 4.6334L12.2473 3.49902C12.8688 2.91309 12.8688 1.96387 12.2473 1.37793L11.2679 0.452148C10.6465 -0.133789 9.63974 -0.133789 9.01829 0.452148H9.01581ZM7.25089 2.11621L1.4565 7.58184C1.19798 7.82559 1.00906 8.12793 0.904657 8.4584L0.0246857 11.2779C-0.0374592 11.4771 0.0197141 11.6904 0.173833 11.8357C0.327953 11.9811 0.55416 12.035 0.762967 11.9787L3.75338 11.149C4.10388 11.0506 4.42454 10.8725 4.68307 10.6287L10.4824 5.16309L7.25089 2.11621Z" fill="#A0A0A0"/>
</svg>
