<svg width="143" height="87" viewBox="0 0 143 87" fill="none" xmlns="http://www.w3.org/2000/svg">
<path d="M67.6252 58.3331C67.4578 57.7086 67.2946 57.0801 67.1109 56.4231C65.9682 51.7052 65.1764 46.9015 64.7275 42.049C68.2863 42.9223 72.0737 43.7019 76.0774 44.3834C75.3714 50.2726 74.1715 56.17 72.4818 62.0144C72.3023 62.6306 72.4247 63.2959 72.8124 63.806C73.2001 64.3162 73.8042 64.6223 74.4449 64.6223C86.8111 64.6223 97.2958 57.6434 102.463 47.2321C108.54 45.4282 112.755 41.4123 113.547 36.5801C114.074 33.3682 113.51 27.0504 103.793 20.7898C102.605 17.5616 100.92 14.3129 98.7119 11.0071C98.0834 10.0684 96.8183 9.81945 95.8796 10.4439C94.9409 11.0724 94.6919 12.3376 95.3164 13.2763C99.6955 19.8226 101.822 26.0505 101.822 32.3111C101.822 47.1954 91.1902 59.0432 77.1589 60.4104C79.6485 50.9624 80.9096 41.4 80.9096 31.9479C80.9096 23.6344 79.9342 15.3985 78.0078 7.38703C77.9997 7.33398 77.9833 7.28092 77.9711 7.22787C77.9711 7.21154 77.9629 7.1993 77.9589 7.18297C77.4895 5.25663 76.9712 3.34253 76.3917 1.44884C76.0652 0.375473 74.9306 -0.23263 73.8572 0.0857059C72.7798 0.408123 72.1676 1.53454 72.4818 2.61199C72.8777 3.97104 73.1797 5.09746 73.494 6.28918C73.6613 6.91361 73.8246 7.54212 74.0082 8.20328C75.8815 15.9454 76.8284 23.9079 76.8284 31.9479C76.8284 34.7272 76.71 37.5188 76.4855 40.3144C72.1839 39.5757 68.1598 38.735 64.4296 37.7881C64.3439 36.0863 64.2908 34.3844 64.2908 32.6744C64.2908 22.6876 65.7519 12.5743 68.6373 2.60791C68.8169 1.99164 68.6945 1.3264 68.3067 0.816247C67.919 0.306093 67.3191 0 66.6783 0C60.8218 0 55.2305 1.56311 50.3616 4.48119C42.4725 3.3711 35.314 5.46885 31.5552 10.0521C28.9065 13.2763 28.2943 17.284 29.8248 21.3285C30.788 23.8752 32.5388 26.2954 35.0039 28.5727C34.8651 29.8053 34.7876 31.0541 34.7876 32.3111C34.7876 40.6899 37.4853 48.1382 42.5868 53.8437C43.3378 54.6845 44.6274 54.7538 45.4682 54.0029C46.3089 53.2519 46.3783 51.9623 45.6273 51.1215C41.2033 46.1751 38.8647 39.6696 38.8647 32.3111C38.8647 32.0826 38.877 31.8581 38.881 31.6336C44.1989 35.2659 51.5206 38.4207 60.5402 40.947C60.9728 46.4444 61.8217 51.8929 63.1073 57.2352C63.1154 57.2883 63.1317 57.3413 63.144 57.3944C63.144 57.4107 63.1521 57.423 63.1562 57.4352C63.6256 59.3616 64.148 61.2757 64.7234 63.1734C64.9928 64.055 65.8009 64.6223 66.6743 64.6223C66.8661 64.6223 67.062 64.5937 67.2579 64.5366C68.3353 64.2141 68.9475 63.0877 68.6332 62.0103C68.2333 60.6512 67.9354 59.5248 67.6211 58.3331H67.6252ZM109.515 35.9149C109.115 38.3391 107.291 40.4981 104.515 42.0041C105.417 38.9554 105.903 35.7026 105.903 32.3111C105.903 30.6093 105.764 28.9115 105.491 27.2178C108.564 30.0828 109.98 33.0825 109.515 35.9149ZM33.6407 19.8838C32.6327 17.2228 33.0041 14.7169 34.71 12.6396C36.8404 10.0439 40.7217 8.50529 45.2519 8.29715C44.8356 8.68079 44.4274 9.07258 44.0275 9.48071C40.1136 13.4722 37.3628 18.3411 35.9303 23.663C34.7427 22.2386 34.0448 20.9531 33.6407 19.8879V19.8838ZM45.6804 30.9766C43.0684 29.6053 40.9951 28.2421 39.3504 26.9402C40.7747 19.141 45.2641 12.5661 51.5492 8.50121C51.7859 8.40734 52.0022 8.27266 52.19 8.10125C55.6672 5.98717 59.6545 4.61588 63.9602 4.21183C61.4707 13.6599 60.2096 23.2222 60.2096 32.6784C60.2096 34.0089 60.2422 35.3394 60.2953 36.6658C54.6632 35.0252 49.7739 33.1274 45.6845 30.9766H45.6804Z" fill="#6D2FEF"/>
<path d="M85.9862 44.3425L86.391 44.4772C87.6365 44.8853 88.611 45.9015 89.0078 47.1953L89.1375 47.6156C89.2908 48.1136 89.9666 48.1136 90.1159 47.6156L90.2456 47.1953C90.6385 45.9015 91.6169 44.8894 92.8625 44.4772L93.2672 44.3425C93.7466 44.1833 93.7466 43.4814 93.2672 43.3263L92.8625 43.1916C91.6169 42.7835 90.6424 41.7672 90.2456 40.4735L90.1159 40.0531C89.9627 39.5552 89.2868 39.5552 89.1375 40.0531L89.0078 40.4735C88.6149 41.7672 87.6365 42.7794 86.391 43.1916L85.9862 43.3263C85.5069 43.4854 85.5069 44.1874 85.9862 44.3425Z" fill="#6D2FEF"/>
<path d="M6.88638 77.1924C6.45277 76.4279 5.49427 76.2168 4.79251 76.2168C3.16077 76.2168 2.49325 77.432 2.07675 78.71C1.64315 80.0337 0 84.4782 0 85.5165C0 86.2811 0.273858 86.7946 1.278 86.7946C2.28215 86.7946 2.37914 85.8817 2.77851 85.197C3.01814 84.7806 3.35476 84.4782 4.3589 84.4782C4.98078 84.4782 5.55703 84.5409 5.83088 84.558C6.40713 84.5923 6.75515 84.9745 6.98337 85.5165C7.26864 86.2354 7.58814 86.7946 8.35836 86.7946C9.33398 86.7946 9.63636 86.2354 9.63636 85.5337C9.63636 84.655 8.83761 82.6753 8.55234 81.6997C8.09021 80.1478 7.53108 78.3107 6.89208 77.1924H6.88638ZM5.75101 82.7323C5.41439 82.8122 4.91803 82.8122 4.50724 82.8122C3.99376 82.8122 3.38899 82.6867 3.38899 82.0135C3.38899 81.694 3.99376 79.7313 4.3646 79.0581C4.42736 78.9154 4.64987 78.8013 4.82674 78.8013C5.12912 78.8013 5.30599 79.1208 5.4201 79.3776C5.67684 79.9995 6.25308 81.4714 6.25308 82.1104C6.25308 82.4642 6.03057 82.6867 5.75671 82.7323H5.75101Z" fill="#6D2FEF"/>
<path d="M18.3885 76.2168C17.3044 76.2168 17.1561 76.8216 17.1561 78.0539C17.1561 79.7655 17.6354 81.8081 17.6354 83.2002C17.6354 83.2173 17.6354 83.5824 17.5384 83.5824C17.4927 83.5824 17.4243 83.4569 17.4128 83.4227C16.8994 82.4471 16.2946 81.4714 15.8325 80.4844C15.3532 79.446 14.5716 77.8029 13.8698 76.9243C13.5047 76.445 13.0083 76.2225 12.3978 76.2225C10.9772 76.2225 10.6748 77.0669 10.6748 78.3335C10.6748 79.6001 10.7376 80.7126 10.7376 81.9735C10.7376 82.9948 10.6748 84.0503 10.6748 85.0715C10.6748 85.9159 10.9315 86.8744 11.9528 86.8744C12.9741 86.8744 13.265 86.2982 13.265 85.3397C13.265 83.6794 12.9113 82.3387 12.9113 80.5301C12.9113 80.4958 12.9284 80.0679 12.9912 80.0679C13.1338 80.0679 13.3449 80.5129 13.4077 80.6442C14.1608 82.0192 15.9466 85.6934 17.1618 86.5207C17.4471 86.7261 17.7837 86.8402 18.1374 86.8402C19.6208 86.8402 19.6722 85.2883 19.6722 84.1701C19.6722 83.7079 19.6551 83.2743 19.6551 82.8122C19.6551 80.1592 19.8319 79.6001 19.8319 78.0539C19.8319 76.8102 19.5295 76.2168 18.3942 76.2168H18.3885Z" fill="#6D2FEF"/>
<path d="M25.6233 76.245C22.3826 76.245 20.9277 78.6754 20.9277 81.8362C20.9277 84.997 22.6051 86.9939 25.5947 86.9939C28.5843 86.9939 30.3701 84.8715 30.3701 81.608C30.3701 78.3445 28.9666 76.2393 25.6233 76.2393V76.245ZM25.686 84.7631C23.9915 84.7631 23.4153 83.0515 23.4153 81.6137C23.4153 79.8907 23.8945 78.4187 25.686 78.4187C27.4775 78.4187 27.8883 80.2216 27.8883 81.5966C27.8883 83.2112 27.3292 84.7574 25.686 84.7574V84.7631Z" fill="#6D2FEF"/>
<path d="M37.6387 76.0859C36.5375 76.0859 35.8358 76.3084 34.2839 76.3084C33.5023 76.3084 32.7834 76.1316 31.9847 76.1316C31.1859 76.1316 30.5298 76.337 30.5298 77.2841C30.5298 78.4023 31.2144 78.6248 32.1615 78.6248C32.4011 78.6248 32.5951 78.5792 32.7834 78.5792C33.4566 78.5792 33.7248 78.6933 33.7248 79.8115C33.7248 81.5346 33.3882 83.5828 33.3882 85.0377C33.3882 86.1217 33.5822 86.9547 34.7803 86.9547C36.218 86.9547 36.2637 86.0418 36.2637 84.7809C36.2637 83.0693 36.0069 81.4433 36.0069 79.6061C36.0069 79.0128 36.0069 78.6819 36.6916 78.6819C37.1252 78.6819 37.5873 78.7618 38.0495 78.7618C38.8026 78.7618 39.2818 78.0771 39.2818 77.4039C39.2818 76.5709 38.5801 76.0916 37.6387 76.0916V76.0859Z" fill="#6D2FEF"/>
<path d="M47.7993 76.2344C46.5213 76.2344 46.4244 76.9361 46.4244 77.9916C46.4244 78.4538 46.4871 78.9501 46.4871 79.4123C46.4871 80.5648 45.6884 80.753 44.6956 80.753C43.8341 80.753 42.8927 80.5134 42.8927 79.4579C42.8927 78.8817 43.0183 78.1628 43.0183 77.5751C43.0183 76.4398 42.3621 76.2515 41.6147 76.2515C40.7019 76.2515 40.1941 76.7307 40.1941 77.655C40.1941 78.2598 40.371 79.2525 40.371 80.7359C40.371 82.2193 40.1941 83.6913 40.1941 85.1633C40.1941 86.3785 40.5307 86.9034 41.7574 86.9034C42.6531 86.9034 42.9897 86.3785 42.9897 85.5284C42.9897 84.8723 42.8756 84.4444 42.8756 83.7883C42.8756 82.8754 43.6401 82.7043 44.5872 82.7043C45.6427 82.7043 46.5042 82.8298 46.5042 83.7769C46.5042 84.2732 46.4072 84.6384 46.4072 85.1519C46.4072 86.1275 46.5841 86.9091 47.748 86.9091C48.832 86.9091 49.123 86.4128 49.123 85.4086C49.123 84.6441 49.026 83.8567 49.026 83.0751C49.026 81.3007 49.2029 79.5777 49.2029 77.8205C49.2029 76.8277 48.8834 76.2401 47.7993 76.2401V76.2344Z" fill="#6D2FEF"/>
<path d="M57.0137 84.3467C55.9924 84.3467 54.8114 84.6035 53.7845 84.6035C53.1626 84.6035 52.7917 84.2041 52.7917 83.5993C52.7917 82.9147 53.077 82.4354 53.813 82.4354C54.2124 82.4354 54.8342 82.4811 55.2336 82.4811C55.7927 82.4811 56.9566 82.4354 56.9566 81.4427C56.9566 80.741 56.7512 80.2617 55.7129 80.2617C55.2165 80.2617 54.3208 80.3073 53.8301 80.3073C52.9058 80.3073 52.7746 79.9707 52.7746 79.1434C52.7746 78.4417 53.3508 78.3105 53.91 78.3105C54.7715 78.3105 55.7015 78.5501 56.6428 78.5501C57.3788 78.5501 57.8581 78.1849 57.8581 77.4147C57.8581 76.1367 56.8825 76.1367 55.8783 76.1367C55.285 76.1367 54.5661 76.2337 53.9613 76.2337C53.5277 76.2337 53.1169 76.2166 52.6662 76.2166C50.9717 76.2166 50.5552 76.7415 50.5552 78.5957C50.5552 79.1891 50.5723 79.9194 50.5723 80.5127C50.5723 81.6481 50.4753 82.7949 50.4753 84.0101C50.4753 85.0656 50.5096 86.7601 51.9131 86.7601C53.3166 86.7601 54.7715 86.8856 56.1636 86.8856C57.2191 86.8856 58.0806 86.6004 58.0806 85.6076C58.0806 84.9059 57.7611 84.3467 57.008 84.3467H57.0137Z" fill="#6D2FEF"/>
<path d="M66.821 84.5241C66.1478 84.0278 65.446 83.6911 64.8241 83.1663C64.5503 82.9437 64.5217 82.8011 64.9211 82.687C66.3132 82.2705 67.0777 80.8042 67.0777 79.4121C67.0777 76.6793 64.7956 76.0117 62.5705 76.0117C60.6079 76.0117 58.9419 76.2513 58.9419 78.3281C58.9419 79.5262 59.1188 80.7072 59.1188 81.8882C59.1188 83.0693 58.9932 84.2674 58.9932 85.4484C58.9932 86.3727 59.4097 86.8861 60.3169 86.8861C61.2925 86.8861 61.6576 86.3727 61.6576 85.4826C61.6576 84.8094 61.5435 84.159 61.5435 83.4686C61.5435 83.423 61.5435 83.1948 61.6063 83.1663C62.1997 83.6797 62.8215 84.3986 63.3179 85.0376C64.0026 85.8991 64.8184 86.9204 66.0165 86.9204C66.8153 86.9204 67.4372 86.424 67.4372 85.6081C67.4372 85.1289 67.1633 84.7923 66.8153 84.5241H66.821ZM62.5591 81.3576C61.5207 81.3576 61.3267 80.6559 61.3267 79.6632C61.3267 78.5107 61.4865 78.0828 62.7188 78.0828C63.6146 78.0828 64.6016 78.4993 64.6016 79.5034C64.6016 80.7015 63.723 81.3576 62.5591 81.3576Z" fill="#6D2FEF"/>
<path d="M79.4128 76.3252C78.1805 76.3252 78.0207 77.2209 78.0207 78.0824C78.0207 79.6172 78.2261 80.9922 78.2261 82.6011C78.2261 83.7194 77.7298 84.6322 76.5145 84.6322C75.014 84.6322 74.6432 83.4512 74.6432 82.1903C74.6432 80.7526 74.8371 79.4917 74.8371 78.0539C74.8371 77.1297 74.6945 76.3423 73.445 76.3423C72.1955 76.3423 72.0415 77.5404 72.0415 78.8356C72.0415 80.2904 72.1385 81.5057 72.1841 83.0861C72.2298 85.6592 74.1011 86.9999 76.3034 86.9999C79.6411 86.9999 80.6794 84.7805 80.7422 82.2245C80.7593 81.3916 80.7764 79.6857 80.7764 78.71C80.7764 77.6888 80.7422 76.3309 79.4014 76.3309L79.4128 76.3252Z" fill="#6D2FEF"/>
<path d="M89.9678 76.2168C88.8838 76.2168 88.7354 76.8216 88.7354 78.0539C88.7354 79.7655 89.2147 81.8081 89.2147 83.2002C89.2147 83.2173 89.2147 83.5824 89.1177 83.5824C89.0721 83.5824 89.0036 83.4569 88.9922 83.4227C88.4787 82.4471 87.8739 81.4714 87.4118 80.4844C86.9326 79.446 86.1509 77.8029 85.4492 76.9243C85.084 76.445 84.5876 76.2225 83.9772 76.2225C82.5565 76.2225 82.2542 77.0669 82.2542 78.3335C82.2542 79.6001 82.3169 80.7126 82.3169 81.9735C82.3169 82.9948 82.2542 84.0503 82.2542 85.0715C82.2542 85.9159 82.5109 86.8744 83.5322 86.8744C84.5534 86.8744 84.8444 86.2982 84.8444 85.3397C84.8444 83.6794 84.4907 82.3387 84.4907 80.5301C84.4907 80.4958 84.5078 80.0679 84.5705 80.0679C84.7132 80.0679 84.9243 80.5129 84.987 80.6442C85.7401 82.0192 87.5259 85.6934 88.7411 86.5207C89.0264 86.7261 89.363 86.8402 89.7168 86.8402C91.2002 86.8402 91.2515 85.2883 91.2515 84.1701C91.2515 83.7079 91.2344 83.2743 91.2344 82.8122C91.2344 80.1592 91.4113 79.6001 91.4113 78.0539C91.4113 76.8102 91.1089 76.2168 89.9735 76.2168H89.9678Z" fill="#6D2FEF"/>
<path d="M94.538 76.2344C93.5624 76.2344 93.2144 76.9704 93.2144 77.849C93.2144 78.933 93.3912 79.8801 93.3912 81.5404C93.3912 82.6757 93.2315 83.8567 93.2315 84.9579C93.2315 85.9791 93.4711 86.892 94.6863 86.892C95.9016 86.892 96.0613 86.0761 96.0613 85.0206C96.0613 83.8054 95.8673 82.5616 95.8673 81.3464C95.8673 80.0684 96.0727 78.9159 96.0727 77.655C96.0727 76.5539 95.3367 76.2344 94.538 76.2344Z" fill="#6D2FEF"/>
<path d="M105.224 76.2168C104.808 76.2168 104.551 76.4222 104.3 76.7132C103.758 77.3179 103.581 78.8356 103.421 79.6514C102.959 82.2245 102.622 83.2458 102.463 83.6908C102.417 83.8049 102.303 84.0902 102.143 84.0902C101.983 84.0902 101.63 83.0861 101.567 82.9263C101.185 81.6654 100.802 80.3532 100.546 79.0467C100.34 78.0254 100.181 76.2168 98.7542 76.2168C97.9897 76.2168 97.2822 76.6333 97.2822 77.4777C97.2822 78.1509 97.6188 78.7899 97.8414 79.4917C98.178 80.4673 98.4804 81.4087 98.7827 82.4014C99.1479 83.6623 99.6443 85.0715 100.397 86.1384C100.797 86.6804 101.498 86.8744 102.172 86.8744C103.849 86.8744 104.471 85.1628 104.922 83.7764C105.321 82.4813 105.72 81.1576 106.057 79.8283C106.234 79.0752 106.73 78.4077 106.73 77.6089C106.73 76.6846 106.154 76.2168 105.23 76.2168H105.224Z" fill="#6D2FEF"/>
<path d="M114.347 84.3299C113.406 84.3299 112.27 84.6494 111.329 84.6494C110.45 84.6494 110.068 84.3128 110.068 83.4171C110.068 82.761 110.353 82.4586 111.009 82.4586C111.534 82.4586 112.208 82.5384 112.75 82.5384C113.742 82.5384 114.347 82.3616 114.347 81.2262C114.347 80.4103 113.754 80.1536 113.035 80.1536C112.396 80.1536 111.677 80.3305 111.055 80.3305C110.319 80.3305 110.051 80.1251 110.051 79.3891C110.051 78.4477 110.53 78.3336 111.346 78.3336C112.208 78.3336 113.166 78.5105 114.016 78.5105C114.718 78.5105 115.072 77.9513 115.072 77.3123C115.072 76.3367 114.13 76.1484 113.349 76.1484C112.807 76.1484 112.265 76.2112 111.015 76.2112C110.251 76.2112 109.321 76.2283 108.841 76.3709C107.837 76.6904 107.677 77.9342 107.677 78.8128C107.677 79.8056 107.871 80.7298 107.871 81.7226C107.871 82.5556 107.746 83.4 107.746 84.2158C107.746 85.7791 108.18 86.8688 109.777 86.8688C110.496 86.8688 110.93 86.8061 111.648 86.8061C111.905 86.8061 112.784 86.8859 113.246 86.8859C114.267 86.8688 115.288 86.7433 115.288 85.4824C115.288 84.8263 115.066 84.3299 114.364 84.3299H114.347Z" fill="#6D2FEF"/>
<path d="M123.293 83.9019C123.036 83.7251 121.872 83.1203 121.872 82.8179C121.872 82.5612 122.448 82.5155 122.956 82.099C123.738 81.46 124.234 80.724 124.234 79.4004C124.234 76.7303 122.174 76 119.875 76C117.861 76 116.167 76.2225 116.167 78.6986C116.167 79.4346 116.309 80.1992 116.309 80.9808C116.309 82.9434 116.184 84.113 116.184 84.7178C116.184 85.9159 116.184 86.8402 117.525 86.8402C118.517 86.8402 118.962 86.3438 118.962 85.4196C118.962 84.6836 118.74 83.9818 118.74 83.3086C118.74 83.2287 118.757 83.0689 118.865 83.0689C119.008 83.0689 119.231 83.3257 119.328 83.4227C119.87 84.016 120.383 84.7806 120.942 85.4196C121.501 86.1042 122.157 86.8402 123.053 86.8402C123.949 86.8402 124.508 86.264 124.508 85.3853C124.508 84.6493 123.852 84.2328 123.293 83.9019ZM119.858 81.2946C118.786 81.2946 118.483 80.6385 118.483 79.68C118.483 79.2977 118.546 78.6245 118.848 78.3392C119.202 78.0368 119.63 77.9741 120.029 77.9741C120.942 77.9741 121.769 78.4704 121.769 79.446C121.769 80.5015 121.324 81.3003 119.852 81.3003L119.858 81.2946Z" fill="#6D2FEF"/>
<path d="M127.989 79.1726C127.989 78.5508 128.673 78.391 129.17 78.391C130.402 78.391 131.087 79.1898 131.76 79.1898C132.433 79.1898 132.895 78.5964 132.895 77.9916C132.895 77.7064 132.781 77.4496 132.593 77.21C131.971 76.3941 130.533 76.126 129.592 76.126C127.561 76.126 125.678 77.0388 125.678 79.3837C125.678 80.4678 126.237 81.4605 127.258 81.9055C128.901 82.67 131.058 82.4818 131.058 83.6171C131.058 84.4786 130.134 84.6897 129.426 84.6897C127.989 84.6897 127.555 83.3661 126.665 83.3661C125.992 83.3661 125.467 83.7997 125.467 84.4843C125.467 86.3557 127.703 86.9776 129.318 86.9776C131.378 86.9776 133.517 86.002 133.517 83.6571C133.517 79.2811 127.989 81.3064 127.989 79.1841V79.1726Z" fill="#6D2FEF"/>
<path d="M141.008 84.3467C139.987 84.3467 138.806 84.6035 137.779 84.6035C137.157 84.6035 136.786 84.2041 136.786 83.5993C136.786 82.9147 137.072 82.4354 137.808 82.4354C138.207 82.4354 138.829 82.4811 139.228 82.4811C139.787 82.4811 140.951 82.4354 140.951 81.4427C140.951 80.741 140.746 80.2617 139.707 80.2617C139.211 80.2617 138.315 80.3073 137.825 80.3073C136.9 80.3073 136.769 79.9707 136.769 79.1434C136.769 78.4417 137.345 78.3105 137.905 78.3105C138.766 78.3105 139.696 78.5501 140.637 78.5501C141.373 78.5501 141.853 78.1849 141.853 77.4147C141.853 76.1367 140.877 76.1367 139.873 76.1367C139.28 76.1367 138.561 76.2337 137.956 76.2337C137.522 76.2337 137.112 76.2166 136.661 76.2166C134.966 76.2166 134.55 76.7415 134.55 78.5957C134.55 79.1891 134.567 79.9194 134.567 80.5127C134.567 81.6481 134.47 82.7949 134.47 84.0101C134.47 85.0656 134.504 86.7601 135.908 86.7601C137.311 86.7601 138.766 86.8856 140.158 86.8856C141.214 86.8856 142.075 86.6004 142.075 85.6076C142.075 84.9059 141.756 84.3467 141.003 84.3467H141.008Z" fill="#6D2FEF"/>
</svg>
