<svg width="19" height="19" viewBox="0 0 19 19" fill="none" xmlns="http://www.w3.org/2000/svg">
<path fill-rule="evenodd" clip-rule="evenodd" d="M15.9912 3.0096L3.39919 7.5626L7.59419 9.9906L11.2932 6.2906C11.4808 6.10309 11.7353 5.99781 12.0005 5.9979C12.2658 5.99799 12.5202 6.10346 12.7077 6.2911C12.8952 6.47874 13.0005 6.73319 13.0004 6.99846C13.0003 7.26373 12.8948 7.51809 12.7072 7.7056L9.00719 11.4056L11.4372 15.5996L15.9912 3.0096ZM16.3142 0.765602C17.5092 0.332602 18.6672 1.4906 18.2342 2.6856L12.9522 17.2906C12.5182 18.4886 10.8822 18.6346 10.2432 17.5316L7.02619 11.9736L1.46819 8.7566C0.365189 8.1176 0.511189 6.4816 1.70919 6.0476L16.3142 0.765602Z" fill="#6D2FEF"/>
</svg>
