<svg width="22" height="22" viewBox="0 0 22 22" fill="none" xmlns="http://www.w3.org/2000/svg">
<path d="M19.2502 9.00023C19.2502 8.83608 19.2178 8.67354 19.155 8.52188C19.0922 8.37022 19.0001 8.23242 18.884 8.11635C18.768 8.00028 18.6302 7.9082 18.4785 7.84538C18.3269 7.78257 18.1643 7.75023 18.0002 7.75023C17.836 7.75023 17.6735 7.78257 17.5218 7.84538C17.3702 7.9082 17.2324 8.00028 17.1163 8.11635C17.0002 8.23242 16.9081 8.37022 16.8453 8.52188C16.7825 8.67354 16.7502 8.83608 16.7502 9.00023H19.2502ZM5.25016 9.00023C5.25016 8.66871 5.11847 8.35077 4.88405 8.11635C4.64963 7.88193 4.33169 7.75023 4.00016 7.75023C3.66864 7.75023 3.3507 7.88193 3.11628 8.11635C2.88186 8.35077 2.75016 8.66871 2.75016 9.00023H5.25016ZM19.1162 11.8842C19.3506 12.1187 19.6686 12.2504 20.0002 12.2504C20.3317 12.2504 20.6497 12.1187 20.8842 11.8842C21.1186 11.6498 21.2503 11.3318 21.2503 11.0002C21.2503 10.6687 21.1186 10.3507 20.8842 10.1162L19.1162 11.8842ZM11.0002 2.00023L11.8842 1.11623C11.7681 1.00012 11.6303 0.908021 11.4786 0.845182C11.3269 0.782343 11.1643 0.75 11.0002 0.75C10.836 0.75 10.6734 0.782343 10.5217 0.845182C10.3701 0.908021 10.2322 1.00012 10.1162 1.11623L11.0002 2.00023ZM1.11616 10.1162C0.881713 10.3507 0.75 10.6687 0.75 11.0002C0.75 11.3318 0.881713 11.6498 1.11616 11.8842C1.35062 12.1187 1.6686 12.2504 2.00016 12.2504C2.33173 12.2504 2.64971 12.1187 2.88416 11.8842L1.11616 10.1162ZM6.00016 21.2502H16.0002V18.7502H6.00016V21.2502ZM19.2502 18.0002V9.00023H16.7502V18.0002H19.2502ZM5.25016 18.0002V9.00023H2.75016V18.0002H5.25016ZM20.8842 10.1162L11.8842 1.11623L10.1162 2.88423L19.1162 11.8842L20.8842 10.1162ZM10.1162 1.11623L1.11616 10.1162L2.88416 11.8842L11.8842 2.88423L10.1162 1.11623ZM16.0002 21.2502C16.8621 21.2502 17.6888 20.9078 18.2983 20.2983C18.9078 19.6888 19.2502 18.8622 19.2502 18.0002H16.7502C16.7502 18.1991 16.6711 18.3899 16.5305 18.5306C16.3898 18.6712 16.1991 18.7502 16.0002 18.7502V21.2502ZM6.00016 18.7502C5.80125 18.7502 5.61049 18.6712 5.46983 18.5306C5.32918 18.3899 5.25016 18.1991 5.25016 18.0002H2.75016C2.75016 18.8622 3.09257 19.6888 3.70207 20.2983C4.31156 20.9078 5.13821 21.2502 6.00016 21.2502V18.7502Z" />
</svg>
