<svg width="23" height="23" viewBox="0 0 23 23" fill="none" xmlns="http://www.w3.org/2000/svg">
<path d="M6.05127 13.3191V16.1962C6.05127 16.6114 6.38874 16.9488 6.80389 16.9488H9.68099C9.96247 16.9488 10.2271 16.8392 10.4261 16.6403L18.7813 8.28499L14.7151 4.21875L6.35984 12.574C6.16085 12.773 6.05127 13.0376 6.05127 13.3191Z" fill="white"/>
<path d="M21.8332 5.23278C22.3615 4.70444 22.3615 3.84525 21.8332 3.31691L19.6828 1.16654C19.1544 0.638499 18.2953 0.638499 17.7669 1.16654L15.7788 3.15465L19.8451 7.22089L21.8332 5.23278Z" fill="white"/>
<path d="M21.1937 9.5733V18.4843C21.1937 19.9784 19.9784 21.1937 18.4843 21.1937H4.51571C3.02161 21.1937 1.80628 19.9784 1.80628 18.4843V4.51571C1.80628 3.02161 3.02161 1.80628 4.51571 1.80628H13.4267V0H4.51571C2.02575 0 0 2.02575 0 4.51571V18.4843C0 20.9743 2.02575 23 4.51571 23H18.4843C20.9743 23 23 20.9743 23 18.4843V9.5733H21.1937Z" fill="white"/>
</svg>
