<svg width="34" height="26" viewBox="0 0 34 26" fill="none" xmlns="http://www.w3.org/2000/svg">
<path d="M15.5078 23.4204C15.4406 23.1697 15.3751 22.9174 15.3014 22.6536C14.8425 20.7594 14.5247 18.8307 14.3444 16.8824C15.7733 17.2331 17.2939 17.5461 18.9014 17.8197C18.6179 20.1842 18.1361 22.552 17.4577 24.8985C17.3857 25.1459 17.4348 25.413 17.5905 25.6178C17.7461 25.8226 17.9887 25.9455 18.2459 25.9455C23.2109 25.9455 27.4204 23.1435 29.4949 18.9635C31.9347 18.2392 33.6274 16.6268 33.9453 14.6867C34.1567 13.3972 33.9305 10.8606 30.0291 8.347C29.5522 7.05088 28.8755 5.74655 27.989 4.41929C27.7367 4.04241 27.2287 3.94246 26.8518 4.19317C26.4749 4.44551 26.375 4.95347 26.6257 5.33035C28.3839 7.95866 29.2376 10.4592 29.2376 12.9728C29.2376 18.9487 24.9691 23.7056 19.3356 24.2545C20.3351 20.4611 20.8414 16.6219 20.8414 12.8269C20.8414 9.48911 20.4498 6.18242 19.6764 2.96586C19.6731 2.94456 19.6666 2.92325 19.6617 2.90195C19.6617 2.8954 19.6584 2.89048 19.6567 2.88393C19.4683 2.11051 19.2602 1.34201 19.0275 0.581701C18.8964 0.150751 18.4409 -0.0933999 18.01 0.0344105C17.5774 0.16386 17.3316 0.616112 17.4577 1.0487C17.6167 1.59435 17.7379 2.04661 17.8641 2.52508C17.9313 2.77578 17.9968 3.02812 18.0706 3.29358C18.8227 6.40199 19.2029 9.59889 19.2029 12.8269C19.2029 13.9428 19.1553 15.0636 19.0652 16.186C17.3381 15.8895 15.7225 15.5519 14.2248 15.1718C14.1904 14.4885 14.1691 13.8052 14.1691 13.1186C14.1691 9.10895 14.7557 5.04851 15.9142 1.04706C15.9863 0.799635 15.9371 0.532543 15.7815 0.327719C15.6258 0.122895 15.3849 0 15.1277 0C12.7763 0 10.5314 0.627582 8.57656 1.79918C5.40916 1.35348 2.53506 2.19572 1.02591 4.03586C-0.0375349 5.33035 -0.283324 6.93945 0.331149 8.5633C0.717858 9.58578 1.42081 10.5575 2.41053 11.4718C2.35481 11.9667 2.32368 12.4681 2.32368 12.9728C2.32368 16.3368 3.40679 19.3272 5.45504 21.618C5.75654 21.9555 6.27433 21.9834 6.61189 21.6819C6.94944 21.3804 6.97729 20.8626 6.67579 20.525C4.89955 18.5391 3.96064 15.9271 3.96064 12.9728C3.96064 12.881 3.96555 12.7909 3.96719 12.7008C6.10228 14.1591 9.04192 15.4257 12.6632 16.44C12.8369 18.6472 13.1777 20.8347 13.6939 22.9797C13.6972 23.001 13.7037 23.0223 13.7086 23.0436C13.7086 23.0501 13.7119 23.055 13.7136 23.06C13.902 23.8334 14.1117 24.6019 14.3428 25.3638C14.4509 25.7178 14.7754 25.9455 15.126 25.9455C15.203 25.9455 15.2817 25.934 15.3603 25.9111C15.7929 25.7817 16.0387 25.3294 15.9126 24.8968C15.752 24.3512 15.6324 23.8989 15.5062 23.4204H15.5078ZM32.3264 14.4196C32.1658 15.393 31.4333 16.2598 30.3191 16.8644C30.6812 15.6404 30.8762 14.3344 30.8762 12.9728C30.8762 12.2895 30.8205 11.6078 30.7107 10.9278C31.9446 12.0781 32.5132 13.2825 32.3264 14.4196ZM1.86324 7.98324C1.4585 6.91487 1.60762 5.90877 2.29255 5.07473C3.14789 4.03258 4.7062 3.41483 6.52504 3.33126C6.3579 3.48529 6.19404 3.6426 6.03346 3.80646C4.46205 5.409 3.35763 7.36385 2.78249 9.50058C2.30566 8.92871 2.02546 8.41255 1.86324 7.98487V7.98324ZM6.69709 12.4369C5.64839 11.8864 4.81599 11.3391 4.15563 10.8164C4.7275 7.68501 6.52996 5.04524 9.05339 3.41319C9.14843 3.37551 9.23528 3.32143 9.31065 3.25261C10.7067 2.40382 12.3076 1.85325 14.0364 1.69103C13.0368 5.48438 12.5305 9.32361 12.5305 13.1202C12.5305 13.6544 12.5436 14.1886 12.5649 14.7211C10.3036 14.0624 8.3406 13.3005 6.69873 12.4369H6.69709Z" fill="#6D2FEF"/>
<path d="M22.5147 17.9719L22.6835 18.026C23.2029 18.1899 23.6093 18.5979 23.7748 19.1173L23.8288 19.2861C23.8927 19.486 24.1746 19.486 24.2368 19.2861L24.2909 19.1173C24.4548 18.5979 24.8628 18.1915 25.3822 18.026L25.551 17.9719C25.7509 17.908 25.7509 17.6262 25.551 17.5639L25.3822 17.5099C24.8628 17.346 24.4564 16.938 24.2909 16.4186L24.2368 16.2498C24.1729 16.0499 23.8911 16.0499 23.8288 16.2498L23.7748 16.4186C23.6109 16.938 23.2029 17.3444 22.6835 17.5099L22.5147 17.5639C22.3148 17.6278 22.3148 17.9097 22.5147 17.9719Z" fill="#6D2FEF"/>
</svg>
