<svg width="143" height="11" viewBox="0 0 143 11" fill="none" xmlns="http://www.w3.org/2000/svg">
<path d="M6.88638 1.61176C6.45277 0.91963 5.49427 0.728516 4.79251 0.728516C3.16077 0.728516 2.49325 1.82869 2.07675 2.98569C1.64315 4.18401 0 8.20768 0 9.14774C0 9.83987 0.273858 10.3047 1.278 10.3047C2.28215 10.3047 2.37914 9.47831 2.77851 8.85849C3.01814 8.48144 3.35476 8.20768 4.3589 8.20768C4.98078 8.20768 5.55703 8.26449 5.83088 8.27999C6.40713 8.31098 6.75515 8.65705 6.98337 9.14774C7.26864 9.79855 7.58814 10.3047 8.35836 10.3047C9.33398 10.3047 9.63636 9.79855 9.63636 9.16324C9.63636 8.3678 8.83761 6.57549 8.55234 5.69224C8.09021 4.28732 7.53108 2.62414 6.89208 1.61176H6.88638ZM5.75101 6.62714C5.41439 6.69945 4.91803 6.69945 4.50724 6.69945C3.99376 6.69945 3.38899 6.58582 3.38899 5.97633C3.38899 5.68708 3.99376 3.91026 4.3646 3.30077C4.42736 3.17164 4.64987 3.06834 4.82674 3.06834C5.12912 3.06834 5.30599 3.35759 5.4201 3.59002C5.67684 4.15303 6.25308 5.48564 6.25308 6.06414C6.25308 6.38438 6.03057 6.58582 5.75671 6.62714H5.75101Z" fill="#6D2FEF"/>
<path d="M18.3885 0.728516C17.3044 0.728516 17.1561 1.27602 17.1561 2.3917C17.1561 3.94125 17.6354 5.79038 17.6354 7.05068C17.6354 7.06618 17.6354 7.39675 17.5384 7.39675C17.4927 7.39675 17.4243 7.28312 17.4128 7.25213C16.8994 6.36888 16.2946 5.48563 15.8325 4.59206C15.3532 3.652 14.5716 2.16444 13.8698 1.369C13.5047 0.935125 13.0083 0.733678 12.3978 0.733678C10.9772 0.733678 10.6748 1.49813 10.6748 2.6448C10.6748 3.79146 10.7376 4.79867 10.7376 5.94017C10.7376 6.86473 10.6748 7.82029 10.6748 8.74486C10.6748 9.50931 10.9315 10.3771 11.9528 10.3771C12.9741 10.3771 13.265 9.85537 13.265 8.98762C13.265 7.48456 12.9113 6.27074 12.9113 4.63338C12.9113 4.60239 12.9284 4.215 12.9912 4.215C13.1338 4.215 13.3449 4.61788 13.4077 4.73668C14.1608 5.98149 15.9466 9.30786 17.1618 10.0568C17.4471 10.2428 17.7837 10.3461 18.1374 10.3461C19.6208 10.3461 19.6722 8.94114 19.6722 7.92876C19.6722 7.51038 19.6551 7.11783 19.6551 6.69945C19.6551 4.29765 19.8319 3.79146 19.8319 2.3917C19.8319 1.26569 19.5295 0.728516 18.3942 0.728516H18.3885Z" fill="#6D2FEF"/>
<path d="M25.6233 0.75443C22.3826 0.75443 20.9277 2.95479 20.9277 5.8163C20.9277 8.6778 22.6051 10.4856 25.5947 10.4856C28.5843 10.4856 30.3701 8.56416 30.3701 5.60969C30.3701 2.65521 28.9666 0.749268 25.6233 0.749268V0.75443ZM25.686 8.46602C23.9915 8.46602 23.4153 6.91648 23.4153 5.61486C23.4153 4.05497 23.8945 2.72236 25.686 2.72236C27.4775 2.72236 27.8883 4.35455 27.8883 5.59936C27.8883 7.0611 27.3292 8.46086 25.686 8.46086V8.46602Z" fill="#6D2FEF"/>
<path d="M37.6387 0.609863C36.5375 0.609863 35.8358 0.811305 34.2839 0.811305C33.5023 0.811305 32.7834 0.651186 31.9847 0.651186C31.1859 0.651186 30.5298 0.837126 30.5298 1.69454C30.5298 2.70692 31.2144 2.90836 32.1615 2.90836C32.4011 2.90836 32.5951 2.86704 32.7834 2.86704C33.4566 2.86704 33.7248 2.97034 33.7248 3.98272C33.7248 5.5426 33.3882 7.3969 33.3882 8.71401C33.3882 9.6954 33.5822 10.4495 34.7803 10.4495C36.218 10.4495 36.2637 9.62308 36.2637 8.48158C36.2637 6.93202 36.0069 5.45996 36.0069 3.79677C36.0069 3.25959 36.0069 2.96002 36.6916 2.96002C37.1252 2.96002 37.5873 3.03233 38.0495 3.03233C38.8026 3.03233 39.2818 2.41251 39.2818 1.80302C39.2818 1.0489 38.5801 0.615026 37.6387 0.615026V0.609863Z" fill="#6D2FEF"/>
<path d="M47.7996 0.744141C46.5216 0.744141 46.4246 1.37946 46.4246 2.33501C46.4246 2.75339 46.4874 3.20276 46.4874 3.62114C46.4874 4.66451 45.6886 4.83495 44.6959 4.83495C43.8344 4.83495 42.893 4.61802 42.893 3.66247C42.893 3.14078 43.0185 2.48997 43.0185 1.95796C43.0185 0.93009 42.3624 0.759636 41.615 0.759636C40.7021 0.759636 40.1943 1.19351 40.1943 2.03027C40.1943 2.57778 40.3712 3.47651 40.3712 4.81946C40.3712 6.1624 40.1943 7.49502 40.1943 8.82763C40.1943 9.92782 40.531 10.403 41.7576 10.403C42.6534 10.403 42.99 9.92781 42.99 9.15821C42.99 8.56421 42.8759 8.17682 42.8759 7.58283C42.8759 6.7564 43.6404 6.60144 44.5875 6.60144C45.643 6.60144 46.5045 6.71508 46.5045 7.57249C46.5045 8.02186 46.4075 8.35244 46.4075 8.8173C46.4075 9.70055 46.5843 10.4082 47.7482 10.4082C48.8323 10.4082 49.1232 9.9588 49.1232 9.04973C49.1232 8.3576 49.0262 7.64481 49.0262 6.93718C49.0262 5.33081 49.2031 3.77093 49.2031 2.18006C49.2031 1.28132 48.8836 0.749311 47.7996 0.749311V0.744141Z" fill="#6D2FEF"/>
<path d="M57.0139 8.08893C55.9927 8.08893 54.8117 8.32136 53.7847 8.32136C53.1628 8.32136 52.792 7.9598 52.792 7.41229C52.792 6.79247 53.0772 6.3586 53.8132 6.3586C54.2126 6.3586 54.8345 6.39992 55.2339 6.39992C55.793 6.39992 56.9569 6.3586 56.9569 5.45986C56.9569 4.82454 56.7515 4.39066 55.7131 4.39066C55.2167 4.39066 54.321 4.43199 53.8303 4.43199C52.9061 4.43199 52.7748 4.12725 52.7748 3.3783C52.7748 2.74298 53.3511 2.62418 53.9102 2.62418C54.7717 2.62418 55.7017 2.84111 56.6431 2.84111C57.3791 2.84111 57.8583 2.51055 57.8583 1.81325C57.8583 0.656253 56.8827 0.65625 55.8786 0.65625C55.2852 0.65625 54.5663 0.744057 53.9616 0.744057C53.528 0.744057 53.1172 0.728562 52.6664 0.728562C50.972 0.728562 50.5555 1.20376 50.5555 2.88244C50.5555 3.41961 50.5726 4.08076 50.5726 4.61793C50.5726 5.6458 50.4756 6.684 50.4756 7.78418C50.4756 8.73974 50.5098 10.2738 51.9133 10.2738C53.3169 10.2738 54.7717 10.3874 56.1638 10.3874C57.2193 10.3874 58.0808 10.1292 58.0808 9.23043C58.0808 8.59512 57.7613 8.08893 57.0082 8.08893H57.0139Z" fill="#6D2FEF"/>
<path d="M66.821 8.24915C66.1478 7.79978 65.446 7.49505 64.8241 7.01985C64.5503 6.81841 64.5217 6.68927 64.9211 6.58597C66.3132 6.20891 67.0777 4.88147 67.0777 3.62117C67.0777 1.14705 64.7956 0.542725 62.5705 0.542725C60.6079 0.542725 58.9419 0.75966 58.9419 2.63978C58.9419 3.72447 59.1188 4.79366 59.1188 5.86285C59.1188 6.93204 58.9932 8.01673 58.9932 9.08592C58.9932 9.92267 59.4097 10.3875 60.3169 10.3875C61.2925 10.3875 61.6576 9.92267 61.6576 9.11691C61.6576 8.50742 61.5435 7.91859 61.5435 7.2936C61.5435 7.25228 61.5435 7.04568 61.6063 7.01985C62.1997 7.48471 62.8215 8.13553 63.3179 8.71402C64.0026 9.49396 64.8184 10.4185 66.0165 10.4185C66.8153 10.4185 67.4372 9.96916 67.4372 9.23054C67.4372 8.79667 67.1633 8.49192 66.8153 8.24915H66.821ZM62.5591 5.38248C61.5207 5.38248 61.3267 4.74718 61.3267 3.84844C61.3267 2.80507 61.4865 2.41768 62.7188 2.41768C63.6146 2.41768 64.6016 2.79474 64.6016 3.7038C64.6016 4.78849 63.723 5.38248 62.5591 5.38248Z" fill="#6D2FEF"/>
<path d="M79.4128 0.826904C78.1805 0.826904 78.0207 1.63784 78.0207 2.41778C78.0207 3.80721 78.2261 5.05201 78.2261 6.50859C78.2261 7.52096 77.7298 8.34739 76.5145 8.34739C75.014 8.34739 74.6432 7.2782 74.6432 6.1367C74.6432 4.83507 74.8371 3.69357 74.8371 2.39195C74.8371 1.55519 74.6945 0.842399 73.445 0.842399C72.1955 0.842399 72.0415 1.92708 72.0415 3.09958C72.0415 4.41669 72.1385 5.51688 72.1841 6.94763C72.2298 9.27712 74.1011 10.4909 76.3034 10.4909C79.6411 10.4909 80.6794 8.48168 80.7422 6.16769C80.7593 5.41357 80.7764 3.86918 80.7764 2.98594C80.7764 2.06138 80.7422 0.832067 79.4014 0.832067L79.4128 0.826904Z" fill="#6D2FEF"/>
<path d="M89.9681 0.728516C88.884 0.728516 88.7357 1.27602 88.7357 2.3917C88.7357 3.94125 89.2149 5.79038 89.2149 7.05068C89.2149 7.06618 89.2149 7.39675 89.1179 7.39675C89.0723 7.39675 89.0038 7.28312 88.9924 7.25213C88.4789 6.36888 87.8742 5.48563 87.4121 4.59206C86.9328 3.652 86.1512 2.16444 85.4494 1.369C85.0843 0.935125 84.5879 0.733678 83.9774 0.733678C82.5568 0.733678 82.2544 1.49813 82.2544 2.6448C82.2544 3.79146 82.3172 4.79867 82.3172 5.94017C82.3172 6.86473 82.2544 7.82029 82.2544 8.74486C82.2544 9.50931 82.5111 10.3771 83.5324 10.3771C84.5537 10.3771 84.8446 9.85537 84.8446 8.98762C84.8446 7.48456 84.4909 6.27074 84.4909 4.63338C84.4909 4.60239 84.508 4.215 84.5708 4.215C84.7134 4.215 84.9245 4.61788 84.9873 4.73668C85.7404 5.98149 87.5262 9.30786 88.7414 10.0568C89.0267 10.2428 89.3633 10.3461 89.717 10.3461C91.2004 10.3461 91.2518 8.94114 91.2518 7.92876C91.2518 7.51038 91.2346 7.11783 91.2346 6.69945C91.2346 4.29765 91.4115 3.79146 91.4115 2.3917C91.4115 1.26569 91.1091 0.728516 89.9738 0.728516H89.9681Z" fill="#6D2FEF"/>
<path d="M94.538 0.744141C93.5624 0.744141 93.2144 1.41045 93.2144 2.20588C93.2144 3.18727 93.3912 4.04468 93.3912 5.54775C93.3912 6.57562 93.2315 7.64481 93.2315 8.64169C93.2315 9.56625 93.4711 10.3927 94.6863 10.3927C95.9016 10.3927 96.0613 9.65406 96.0613 8.6985C96.0613 7.59832 95.8673 6.47232 95.8673 5.37214C95.8673 4.21514 96.0727 3.17177 96.0727 2.03027C96.0727 1.03339 95.3367 0.744141 94.538 0.744141Z" fill="#6D2FEF"/>
<path d="M105.224 0.728516C104.808 0.728516 104.551 0.914459 104.3 1.17788C103.758 1.72539 103.581 3.09933 103.421 3.83795C102.959 6.16744 102.622 7.09201 102.463 7.49489C102.417 7.59819 102.303 7.85645 102.143 7.85645C101.983 7.85645 101.63 6.94738 101.567 6.80275C101.185 5.66125 100.802 4.47327 100.546 3.29044C100.34 2.36588 100.181 0.728516 98.7542 0.728516C97.9897 0.728516 97.2822 1.10558 97.2822 1.87002C97.2822 2.47951 97.6188 3.05801 97.8414 3.69333C98.178 4.57657 98.4804 5.42882 98.7827 6.32756C99.1479 7.46906 99.6443 8.74486 100.397 9.71074C100.797 10.2014 101.498 10.3771 102.172 10.3771C103.849 10.3771 104.471 8.8275 104.922 7.57236C105.321 6.39987 105.72 5.20155 106.057 3.99807C106.234 3.31627 106.73 2.71194 106.73 1.98882C106.73 1.15206 106.154 0.728516 105.23 0.728516H105.224Z" fill="#6D2FEF"/>
<path d="M114.347 8.07287C113.405 8.07287 112.27 8.36211 111.329 8.36211C110.45 8.36211 110.068 8.05737 110.068 7.24644C110.068 6.65244 110.353 6.37869 111.009 6.37869C111.534 6.37869 112.207 6.451 112.749 6.451C113.742 6.451 114.347 6.29088 114.347 5.26301C114.347 4.52439 113.753 4.29197 113.035 4.29197C112.396 4.29197 111.677 4.45209 111.055 4.45209C110.319 4.45209 110.051 4.26613 110.051 3.59983C110.051 2.74758 110.53 2.64428 111.346 2.64428C112.207 2.64428 113.166 2.8044 114.016 2.8044C114.718 2.8044 115.071 2.29821 115.071 1.71971C115.071 0.836463 114.13 0.666016 113.348 0.666016C112.806 0.666016 112.264 0.722833 111.015 0.722833C110.25 0.722833 109.32 0.738328 108.841 0.867457C107.837 1.15671 107.677 2.28271 107.677 3.07815C107.677 3.97689 107.871 4.81365 107.871 5.71239C107.871 6.4665 107.746 7.23095 107.746 7.96956C107.746 9.38482 108.179 10.3714 109.777 10.3714C110.496 10.3714 110.929 10.3145 111.648 10.3145C111.905 10.3145 112.784 10.3869 113.246 10.3869C114.267 10.3714 115.288 10.2577 115.288 9.11623C115.288 8.52224 115.066 8.07287 114.364 8.07287H114.347Z" fill="#6D2FEF"/>
<path d="M123.293 7.68599C123.036 7.52587 121.872 6.97836 121.872 6.70461C121.872 6.47218 122.449 6.43085 122.956 6.05379C123.738 5.47529 124.234 4.80899 124.234 3.61067C124.234 1.19337 122.175 0.532227 119.875 0.532227C117.861 0.532227 116.167 0.733674 116.167 2.97536C116.167 3.64166 116.31 4.3338 116.31 5.04142C116.31 6.81824 116.184 7.8771 116.184 8.42461C116.184 9.5093 116.184 10.346 117.525 10.346C118.518 10.346 118.963 9.89668 118.963 9.05992C118.963 8.39362 118.74 7.7583 118.74 7.14881C118.74 7.0765 118.757 6.93187 118.866 6.93187C119.008 6.93187 119.231 7.16431 119.328 7.25211C119.87 7.78929 120.383 8.48142 120.942 9.05992C121.502 9.67974 122.158 10.346 123.053 10.346C123.949 10.346 124.508 9.82437 124.508 9.02893C124.508 8.36263 123.852 7.98557 123.293 7.68599ZM119.858 5.32551C118.786 5.32551 118.483 4.73151 118.483 3.86377C118.483 3.5177 118.546 2.90821 118.849 2.64995C119.202 2.37619 119.63 2.31938 120.03 2.31938C120.942 2.31938 121.77 2.76875 121.77 3.65199C121.77 4.60755 121.325 5.33067 119.853 5.33067L119.858 5.32551Z" fill="#6D2FEF"/>
<path d="M127.989 3.40396C127.989 2.84095 128.673 2.69632 129.17 2.69632C130.402 2.69632 131.087 3.41945 131.76 3.41945C132.433 3.41945 132.895 2.88227 132.895 2.33476C132.895 2.07651 132.781 1.84408 132.593 1.62714C131.971 0.88852 130.533 0.645752 129.592 0.645752C127.561 0.645752 125.678 1.47218 125.678 3.59507C125.678 4.57645 126.237 5.47519 127.258 5.87807C128.901 6.5702 131.058 6.39975 131.058 7.42762C131.058 8.20756 130.134 8.39867 129.426 8.39867C127.989 8.39867 127.555 7.20035 126.665 7.20035C125.992 7.20035 125.467 7.59291 125.467 8.21273C125.467 9.9069 127.703 10.4699 129.318 10.4699C131.378 10.4699 133.517 9.58667 133.517 7.46378C133.517 3.5021 127.989 5.33573 127.989 3.41428V3.40396Z" fill="#6D2FEF"/>
<path d="M141.008 8.08893C139.987 8.08893 138.806 8.32136 137.779 8.32136C137.157 8.32136 136.786 7.9598 136.786 7.41229C136.786 6.79247 137.071 6.3586 137.807 6.3586C138.207 6.3586 138.829 6.39992 139.228 6.39992C139.787 6.39992 140.951 6.3586 140.951 5.45986C140.951 4.82454 140.746 4.39066 139.707 4.39066C139.211 4.39066 138.315 4.43199 137.824 4.43199C136.9 4.43199 136.769 4.12725 136.769 3.3783C136.769 2.74298 137.345 2.62418 137.904 2.62418C138.766 2.62418 139.696 2.84111 140.637 2.84111C141.373 2.84111 141.852 2.51055 141.852 1.81325C141.852 0.656253 140.877 0.65625 139.873 0.65625C139.279 0.65625 138.56 0.744057 137.956 0.744057C137.522 0.744057 137.111 0.728562 136.661 0.728562C134.966 0.728562 134.55 1.20376 134.55 2.88244C134.55 3.41961 134.567 4.08076 134.567 4.61793C134.567 5.6458 134.47 6.684 134.47 7.78418C134.47 8.73974 134.504 10.2738 135.907 10.2738C137.311 10.2738 138.766 10.3874 140.158 10.3874C141.213 10.3874 142.075 10.1292 142.075 9.23043C142.075 8.59512 141.755 8.08893 141.002 8.08893H141.008Z" fill="#6D2FEF"/>
</svg>
