<svg width="143" height="11" viewBox="0 0 143 11" fill="none" xmlns="http://www.w3.org/2000/svg">
<path d="M6.88638 1.63652C6.45277 0.944119 5.49427 0.75293 4.79251 0.75293C3.16077 0.75293 2.49325 1.85354 2.07675 3.01098C1.64315 4.20977 0 8.23501 0 9.17544C0 9.86784 0.273858 10.3329 1.278 10.3329C2.28215 10.3329 2.37914 9.50614 2.77851 8.88607C3.01814 8.50887 3.35476 8.235 4.3589 8.235C4.98078 8.235 5.55703 8.29184 5.83088 8.30734C6.40713 8.33835 6.75515 8.68455 6.98337 9.17544C7.26864 9.8265 7.58814 10.3329 8.35836 10.3329C9.33398 10.3329 9.63636 9.8265 9.63636 9.19094C9.63636 8.39519 8.83761 6.60218 8.55234 5.71859C8.09021 4.31312 7.53108 2.64929 6.89208 1.63652H6.88638ZM5.75101 6.65385C5.41439 6.72619 4.91803 6.72619 4.50724 6.72619C3.99376 6.72619 3.38899 6.61251 3.38899 6.00279C3.38899 5.71342 3.99376 3.93591 4.3646 3.32618C4.42736 3.197 4.64987 3.09366 4.82674 3.09366C5.12912 3.09366 5.30599 3.38303 5.4201 3.61555C5.67684 4.17877 6.25308 5.5119 6.25308 6.09063C6.25308 6.41099 6.03057 6.61251 5.75671 6.65385H5.75101Z" fill="#6D2FEF"/>
<path d="M18.3885 0.75293C17.3044 0.75293 17.1561 1.30065 17.1561 2.41676C17.1561 3.96692 17.6354 5.81677 17.6354 7.07756C17.6354 7.09306 17.6354 7.42376 17.5384 7.42376C17.4927 7.42376 17.4243 7.31008 17.4128 7.27908C16.8994 6.39549 16.2946 5.5119 15.8325 4.61798C15.3532 3.67755 14.5716 2.18941 13.8698 1.39366C13.5047 0.95962 13.0083 0.758094 12.3978 0.758094C10.9772 0.758094 10.6748 1.52284 10.6748 2.66996C10.6748 3.81707 10.7376 4.82467 10.7376 5.96661C10.7376 6.89154 10.6748 7.84747 10.6748 8.77239C10.6748 9.53714 10.9315 10.4052 11.9528 10.4052C12.9741 10.4052 13.265 9.88334 13.265 9.01525C13.265 7.5116 12.9113 6.29731 12.9113 4.65932C12.9113 4.62831 12.9284 4.24078 12.9912 4.24078C13.1338 4.24078 13.3449 4.64381 13.4077 4.76266C14.1608 6.00795 15.9466 9.33561 17.1618 10.0849C17.4471 10.2709 17.7837 10.3742 18.1374 10.3742C19.6208 10.3742 19.6722 8.96875 19.6722 7.95598C19.6722 7.53744 19.6551 7.14473 19.6551 6.72619C19.6551 4.32345 19.8319 3.81707 19.8319 2.41676C19.8319 1.29032 19.5295 0.75293 18.3942 0.75293H18.3885Z" fill="#6D2FEF"/>
<path d="M25.6233 0.778602C22.3826 0.778602 20.9277 2.97982 20.9277 5.84244C20.9277 8.70506 22.6051 10.5136 25.5947 10.5136C28.5843 10.5136 30.3701 8.59137 30.3701 5.63575C30.3701 2.68012 28.9666 0.773438 25.6233 0.773438V0.778602ZM25.686 8.4932C23.9915 8.4932 23.4153 6.94305 23.4153 5.64092C23.4153 4.08043 23.8945 2.7473 25.686 2.7473C27.4775 2.7473 27.8883 4.38013 27.8883 5.62542C27.8883 7.08773 27.3292 8.48803 25.686 8.48803V8.4932Z" fill="#6D2FEF"/>
<path d="M37.6382 0.633789C36.537 0.633789 35.8353 0.835309 34.2834 0.835309C33.5018 0.835309 32.7829 0.675127 31.9842 0.675127C31.1854 0.675127 30.5293 0.86114 30.5293 1.71889C30.5293 2.73166 31.2139 2.93318 32.161 2.93318C32.4007 2.93318 32.5946 2.89184 32.7829 2.89184C33.4562 2.89184 33.7243 2.99519 33.7243 4.00796C33.7243 5.56844 33.3877 7.42346 33.3877 8.74109C33.3877 9.72286 33.5817 10.4773 34.7798 10.4773C36.2175 10.4773 36.2632 9.65051 36.2632 8.50856C36.2632 6.95841 36.0065 5.48577 36.0065 3.82194C36.0065 3.28455 36.0064 2.98486 36.6911 2.98486C37.1247 2.98486 37.5868 3.0572 38.049 3.0572C38.8021 3.0572 39.2813 2.43713 39.2813 1.82741C39.2813 1.073 38.5796 0.638953 37.6382 0.638953V0.633789Z" fill="#6D2FEF"/>
<path d="M47.7996 0.768555C46.5216 0.768555 46.4246 1.40412 46.4246 2.36005C46.4246 2.77859 46.4874 3.22814 46.4874 3.64668C46.4874 4.69045 45.6886 4.86096 44.6959 4.86096C43.8344 4.86096 42.893 4.64394 42.893 3.68802C42.893 3.16613 43.0185 2.51506 43.0185 1.98285C43.0185 0.954576 42.3624 0.784056 41.615 0.784056C40.7021 0.784056 40.1943 1.2181 40.1943 2.05519C40.1943 2.60291 40.3712 3.50199 40.3712 4.84546C40.3712 6.18893 40.1943 7.52206 40.1943 8.8552C40.1943 9.95581 40.531 10.4312 41.7576 10.4312C42.6534 10.4312 42.99 9.95581 42.99 9.1859C42.99 8.59167 42.8759 8.20413 42.8759 7.6099C42.8759 6.78316 43.6404 6.62814 44.5875 6.62814C45.643 6.62814 46.5045 6.74182 46.5045 7.59957C46.5045 8.04911 46.4075 8.37981 46.4075 8.84486C46.4075 9.72845 46.5843 10.4364 47.7482 10.4364C48.8323 10.4364 49.1232 9.9868 49.1232 9.07738C49.1232 8.38498 49.0262 7.67191 49.0262 6.96401C49.0262 5.35701 49.2031 3.79652 49.2031 2.20503C49.2031 1.30594 48.8836 0.773727 47.7996 0.773727V0.768555Z" fill="#6D2FEF"/>
<path d="M57.0139 8.11624C55.9927 8.11624 54.8117 8.34876 53.7847 8.34876C53.1628 8.34876 52.792 7.98706 52.792 7.43934C52.792 6.81928 53.0772 6.38524 53.8132 6.38524C54.2126 6.38524 54.8345 6.42657 55.2339 6.42657C55.793 6.42657 56.9569 6.38523 56.9569 5.48614C56.9569 4.85058 56.7515 4.41653 55.7131 4.41653C55.2167 4.41653 54.321 4.45787 53.8303 4.45787C52.9061 4.45787 52.7748 4.15301 52.7748 3.40377C52.7748 2.76821 53.3511 2.64936 53.9102 2.64936C54.7717 2.64936 55.7017 2.86638 56.6431 2.86638C57.3791 2.86638 57.8583 2.53568 57.8583 1.83812C57.8583 0.680667 56.8827 0.680664 55.8786 0.680664C55.2852 0.680664 54.5663 0.768505 53.9616 0.768505C53.528 0.768505 53.1172 0.753004 52.6664 0.753004C50.972 0.753004 50.5555 1.22838 50.5555 2.90772C50.5555 3.4451 50.5726 4.1065 50.5726 4.64389C50.5726 5.67216 50.4756 6.71076 50.4756 7.81137C50.4756 8.7673 50.5098 10.302 51.9133 10.302C53.3169 10.302 54.7717 10.4156 56.1638 10.4156C57.2193 10.4156 58.0808 10.1573 58.0808 9.25819C58.0808 8.62262 57.7613 8.11624 57.0082 8.11624H57.0139Z" fill="#6D2FEF"/>
<path d="M66.8205 8.27681C66.1473 7.82727 65.4455 7.52241 64.8236 7.04703C64.5498 6.84551 64.5213 6.71633 64.9206 6.61298C66.3127 6.23578 67.0773 4.90782 67.0773 3.64703C67.0773 1.17195 64.7951 0.567383 62.57 0.567383C60.6074 0.567383 58.9414 0.784403 58.9414 2.66526C58.9414 3.75036 59.1183 4.81997 59.1183 5.88958C59.1183 6.95919 58.9928 8.0443 58.9928 9.1139C58.9928 9.95099 59.4092 10.416 60.3164 10.416C61.292 10.416 61.6572 9.95098 61.6572 9.1449C61.6572 8.53518 61.5431 7.94612 61.5431 7.32089C61.5431 7.27955 61.5431 7.07287 61.6058 7.04703C62.1992 7.51208 62.8211 8.16314 63.3174 8.74187C64.0021 9.52211 64.8179 10.447 66.0161 10.447C66.8148 10.447 67.4367 9.99749 67.4367 9.25858C67.4367 8.82454 67.1628 8.51967 66.8148 8.27681H66.8205ZM62.5586 5.40903C61.5202 5.40903 61.3262 4.77347 61.3262 3.87438C61.3262 2.83061 61.486 2.44307 62.7184 2.44307C63.6141 2.44307 64.6011 2.82027 64.6011 3.72969C64.6011 4.8148 63.7225 5.40903 62.5586 5.40903Z" fill="#6D2FEF"/>
<path d="M79.4124 0.851562C78.18 0.851562 78.0202 1.66281 78.0202 2.44306C78.0202 3.83303 78.2256 5.07832 78.2256 6.53546C78.2256 7.54823 77.7293 8.37498 76.514 8.37498C75.0135 8.37498 74.6427 7.30537 74.6427 6.16342C74.6427 4.86129 74.8366 3.71935 74.8366 2.41722C74.8366 1.58013 74.694 0.867063 73.4445 0.867063C72.1951 0.867063 72.041 1.95217 72.041 3.12512C72.041 4.44275 72.138 5.54337 72.1836 6.97467C72.2293 9.30507 74.1007 10.5194 76.3029 10.5194C79.6406 10.5194 80.6789 8.50932 80.7417 6.19443C80.7588 5.44002 80.7759 3.89503 80.7759 3.01144C80.7759 2.08651 80.7417 0.856727 79.4009 0.856727L79.4124 0.851562Z" fill="#6D2FEF"/>
<path d="M89.9676 0.75293C88.8835 0.75293 88.7352 1.30065 88.7352 2.41676C88.7352 3.96692 89.2145 5.81677 89.2145 7.07756C89.2145 7.09306 89.2145 7.42376 89.1175 7.42376C89.0718 7.42376 89.0034 7.31008 88.9919 7.27908C88.4785 6.39549 87.8737 5.5119 87.4116 4.61798C86.9323 3.67755 86.1507 2.18941 85.4489 1.39366C85.0838 0.95962 84.5874 0.758094 83.9769 0.758094C82.5563 0.758094 82.2539 1.52284 82.2539 2.66996C82.2539 3.81707 82.3167 4.82467 82.3167 5.96661C82.3167 6.89154 82.2539 7.84747 82.2539 8.77239C82.2539 9.53714 82.5107 10.4052 83.5319 10.4052C84.5532 10.4052 84.8441 9.88334 84.8441 9.01525C84.8441 7.5116 84.4904 6.29731 84.4904 4.65932C84.4904 4.62831 84.5075 4.24078 84.5703 4.24078C84.7129 4.24078 84.924 4.64381 84.9868 4.76266C85.7399 6.00795 87.5257 9.33561 88.7409 10.0849C89.0262 10.2709 89.3628 10.3742 89.7165 10.3742C91.1999 10.3742 91.2513 8.96875 91.2513 7.95598C91.2513 7.53744 91.2342 7.14473 91.2342 6.72619C91.2342 4.32345 91.411 3.81707 91.411 2.41676C91.411 1.29032 91.1086 0.75293 89.9733 0.75293H89.9676Z" fill="#6D2FEF"/>
<path d="M94.5385 0.768555C93.5629 0.768555 93.2148 1.43512 93.2148 2.23087C93.2148 3.21263 93.3917 4.07038 93.3917 5.57403C93.3917 6.6023 93.232 7.67191 93.232 8.66918C93.232 9.5941 93.4716 10.4208 94.6868 10.4208C95.9021 10.4208 96.0618 9.68194 96.0618 8.72602C96.0618 7.62541 95.8678 6.49896 95.8678 5.39835C95.8678 4.2409 96.0732 3.19713 96.0732 2.05519C96.0732 1.05792 95.3372 0.768555 94.5385 0.768555Z" fill="#6D2FEF"/>
<path d="M105.224 0.75293C104.808 0.75293 104.551 0.938946 104.3 1.20247C103.758 1.75019 103.581 3.12467 103.421 3.86357C102.959 6.19397 102.622 7.1189 102.463 7.52194C102.417 7.62528 102.303 7.88364 102.143 7.88364C101.983 7.88364 101.63 6.97421 101.567 6.82953C101.185 5.68758 100.802 4.49914 100.546 3.31585C100.34 2.39093 100.181 0.75293 98.7542 0.75293C97.9897 0.75293 97.2822 1.13014 97.2822 1.89488C97.2822 2.50461 97.6188 3.08333 97.8414 3.71889C98.178 4.60248 98.4804 5.45506 98.7827 6.35415C99.1479 7.4961 99.6443 8.77239 100.397 9.73865C100.797 10.2295 101.498 10.4052 102.172 10.4052C103.849 10.4052 104.471 8.85507 104.922 7.59944C105.321 6.42649 105.72 5.22771 106.057 4.02376C106.234 3.34169 106.73 2.73713 106.73 2.01372C106.73 1.17664 106.154 0.75293 105.23 0.75293H105.224Z" fill="#6D2FEF"/>
<path d="M114.347 8.10016C113.406 8.10016 112.271 8.38953 111.329 8.38953C110.451 8.38953 110.068 8.08466 110.068 7.27341C110.068 6.67919 110.354 6.40533 111.01 6.40533C111.535 6.40533 112.208 6.47767 112.75 6.47767C113.743 6.47767 114.347 6.31749 114.347 5.28922C114.347 4.55031 113.754 4.31779 113.035 4.31779C112.396 4.31779 111.677 4.47797 111.055 4.47797C110.319 4.47797 110.051 4.29195 110.051 3.62538C110.051 2.7728 110.53 2.66946 111.346 2.66946C112.208 2.66946 113.166 2.82964 114.016 2.82964C114.718 2.82964 115.072 2.32326 115.072 1.74453C115.072 0.860943 114.131 0.69043 113.349 0.69043C112.807 0.69043 112.265 0.747269 111.015 0.747269C110.251 0.747269 109.321 0.76277 108.842 0.891949C107.837 1.18131 107.678 2.30776 107.678 3.1035C107.678 4.00259 107.872 4.83968 107.872 5.73877C107.872 6.49318 107.746 7.25792 107.746 7.99682C107.746 9.41263 108.18 10.3996 109.777 10.3996C110.496 10.3996 110.93 10.3427 111.649 10.3427C111.905 10.3427 112.784 10.4151 113.246 10.4151C114.267 10.3996 115.289 10.2859 115.289 9.14394C115.289 8.54971 115.066 8.10016 114.364 8.10016H114.347Z" fill="#6D2FEF"/>
<path d="M123.293 7.71319C123.036 7.55301 121.872 7.00529 121.872 6.73143C121.872 6.4989 122.449 6.45756 122.956 6.08036C123.738 5.50163 124.234 4.83507 124.234 3.63628C124.234 1.21804 122.175 0.556641 119.875 0.556641C117.861 0.556641 116.167 0.758166 116.167 3.00072C116.167 3.66729 116.31 4.35969 116.31 5.06759C116.31 6.8451 116.184 7.90438 116.184 8.4521C116.184 9.53721 116.184 10.3743 117.525 10.3743C118.518 10.3743 118.963 9.92474 118.963 9.08766C118.963 8.42109 118.74 7.78553 118.74 7.1758C118.74 7.10346 118.757 6.95878 118.866 6.95878C119.008 6.95878 119.231 7.19131 119.328 7.27915C119.87 7.81653 120.383 8.50894 120.942 9.08766C121.502 9.70772 122.158 10.3743 123.053 10.3743C123.949 10.3743 124.508 9.8524 124.508 9.05666C124.508 8.39009 123.852 8.01288 123.293 7.71319ZM119.858 5.35179C118.786 5.35179 118.483 4.75756 118.483 3.88948C118.483 3.54328 118.546 2.93355 118.849 2.67519C119.202 2.40133 119.63 2.34449 120.03 2.34449C120.942 2.34449 121.77 2.79403 121.77 3.67762C121.77 4.63355 121.325 5.35696 119.853 5.35696L119.858 5.35179Z" fill="#6D2FEF"/>
<path d="M127.989 3.4292C127.989 2.86598 128.673 2.72129 129.17 2.72129C130.402 2.72129 131.087 3.4447 131.76 3.4447C132.433 3.4447 132.895 2.90731 132.895 2.35959C132.895 2.10123 132.781 1.86871 132.593 1.65169C131.971 0.912784 130.533 0.669922 129.592 0.669922C127.561 0.669922 125.678 1.49667 125.678 3.62039C125.678 4.60215 126.237 5.50124 127.258 5.90428C128.901 6.59668 131.058 6.42616 131.058 7.45443C131.058 8.23468 130.134 8.42586 129.426 8.42586C127.989 8.42586 127.555 7.22708 126.665 7.22708C125.992 7.22708 125.467 7.61978 125.467 8.23985C125.467 9.93468 127.703 10.4979 129.318 10.4979C131.378 10.4979 133.517 9.61432 133.517 7.49061C133.517 3.52738 127.989 5.36172 127.989 3.43953V3.4292Z" fill="#6D2FEF"/>
<path d="M141.008 8.11624C139.987 8.11624 138.806 8.34876 137.779 8.34876C137.157 8.34876 136.786 7.98706 136.786 7.43934C136.786 6.81928 137.071 6.38524 137.807 6.38524C138.207 6.38524 138.829 6.42657 139.228 6.42657C139.787 6.42657 140.951 6.38523 140.951 5.48614C140.951 4.85058 140.746 4.41653 139.707 4.41653C139.211 4.41653 138.315 4.45787 137.824 4.45787C136.9 4.45787 136.769 4.15301 136.769 3.40377C136.769 2.76821 137.345 2.64936 137.904 2.64936C138.766 2.64936 139.696 2.86638 140.637 2.86638C141.373 2.86638 141.852 2.53568 141.852 1.83812C141.852 0.680667 140.877 0.680664 139.873 0.680664C139.279 0.680664 138.56 0.768505 137.956 0.768505C137.522 0.768505 137.111 0.753004 136.661 0.753004C134.966 0.753004 134.55 1.22838 134.55 2.90772C134.55 3.4451 134.567 4.1065 134.567 4.64389C134.567 5.67216 134.47 6.71076 134.47 7.81137C134.47 8.7673 134.504 10.302 135.907 10.302C137.311 10.302 138.766 10.4156 140.158 10.4156C141.213 10.4156 142.075 10.1573 142.075 9.25819C142.075 8.62262 141.755 8.11624 141.002 8.11624H141.008Z" fill="#6D2FEF"/>
</svg>
